<svg xmlns="http://www.w3.org/2000/svg" xmlns:xlink="http://www.w3.org/1999/xlink" width="500" zoomAndPan="magnify" viewBox="0 0 375 374.999991" height="500" preserveAspectRatio="xMidYMid meet" version="1.0"><defs><g/><clipPath id="d8925e5d44"><path d="M 311.042969 0 L 364 0 L 364 50 L 311.042969 50 Z M 311.042969 0 " clip-rule="nonzero"/></clipPath></defs><g clip-path="url(#d8925e5d44)"><path fill="#966933" d="M 313.378906 23.074219 C 312.902344 22.667969 312.175781 22.734375 311.789062 23.191406 C 311.65625 23.347656 311.5625 23.554688 311.519531 23.757812 C 311.042969 26.71875 311.609375 31.179688 316.667969 36.507812 C 322.019531 42.15625 329.140625 41.722656 332.609375 40.46875 C 333.496094 40.152344 334.445312 39.378906 333.789062 38.695312 C 332.132812 36.988281 328.503906 33.753906 325.964844 32.25 C 322.175781 29.996094 319.976562 28.199219 317.527344 26.378906 C 316.121094 25.351562 314.511719 24.03125 313.378906 23.074219 Z M 333.722656 36.804688 C 334.199219 37.238281 334.945312 37.214844 335.398438 36.738281 C 335.535156 36.578125 335.625 36.394531 335.671875 36.214844 C 336.328125 33.277344 335.695312 28.835938 330.773438 23.234375 C 326.261719 18.113281 320.660156 17.769531 316.574219 18.636719 C 314.828125 19 312.425781 20.070312 313.652344 21.367188 C 315.125 22.9375 319.003906 26.195312 321.269531 27.652344 C 325.035156 30.109375 327.210938 31.316406 329.640625 33.277344 C 331.023438 34.367188 332.609375 35.78125 333.722656 36.804688 Z M 353.226562 6.296875 C 353.859375 6.136719 354.222656 5.5 354.0625 4.863281 C 354.019531 4.679688 353.929688 4.496094 353.792969 4.339844 C 351.75 2.199219 347.894531 0.0117188 340.683594 0.96875 C 333.019531 2.015625 329.140625 8.070312 328.050781 11.644531 C 327.78125 12.558594 327.824219 13.808594 328.753906 13.671875 C 331.089844 13.332031 335.785156 12.285156 338.507812 11.101562 C 342.542969 9.347656 345.289062 8.617188 348.167969 7.683594 C 349.800781 7.183594 351.820312 6.660156 353.226562 6.296875 Z M 330.296875 14.765625 C 329.640625 14.902344 329.230469 15.5625 329.367188 16.222656 C 329.414062 16.40625 329.480469 16.585938 329.617188 16.722656 C 331.519531 19 335.421875 21.140625 342.746094 20.433594 C 349.484375 19.796875 353.089844 15.425781 354.835938 11.554688 C 355.582031 9.917969 356.171875 7.296875 354.449219 7.527344 C 352.316406 7.796875 347.464844 9.027344 344.96875 10.007812 C 340.796875 11.625 338.527344 12.695312 335.558594 13.511719 C 333.835938 14.015625 331.75 14.46875 330.296875 14.765625 Z M 358.554688 26.21875 C 358.941406 25.695312 358.804688 24.964844 358.28125 24.578125 C 358.125 24.464844 357.941406 24.394531 357.738281 24.375 C 354.8125 24.078125 350.480469 24.964844 345.605469 30.476562 C 340.433594 36.328125 341.320312 43.5 342.769531 46.960938 C 343.132812 47.847656 343.972656 48.757812 344.585938 48.050781 C 346.148438 46.253906 349.050781 42.335938 350.367188 39.652344 C 352.316406 35.644531 353.949219 33.277344 355.5625 30.679688 C 356.511719 29.175781 357.691406 27.425781 358.554688 26.21875 Z M 346.488281 47.847656 C 346.082031 48.371094 346.171875 49.144531 346.695312 49.554688 C 346.851562 49.667969 347.011719 49.761719 347.214844 49.78125 C 350.117188 50.238281 354.425781 49.304688 359.574219 43.929688 C 364.292969 38.992188 364.246094 33.277344 363.136719 29.175781 C 362.660156 27.425781 361.457031 25.058594 360.277344 26.378906 C 358.828125 27.992188 355.925781 32.136719 354.632812 34.550781 C 352.476562 38.558594 351.433594 40.859375 349.6875 43.453125 C 348.6875 44.933594 347.398438 46.640625 346.488281 47.847656 Z M 346.488281 47.847656 " fill-opacity="1" fill-rule="nonzero"/></g><g fill="#000000" fill-opacity="1"><g transform="translate(0.0000045, 44.178659)"><g><path d="M 4.261719 0 L 11.199219 0 L 11.199219 -14.992188 L 24.316406 -14.992188 L 24.316406 0 L 31.203125 0 L 31.203125 -34.671875 L 24.316406 -34.671875 L 24.316406 -21.035156 L 11.199219 -21.035156 L 11.199219 -34.671875 L 4.261719 -34.671875 Z M 4.261719 0 "/></g></g></g><g fill="#000000" fill-opacity="1"><g transform="translate(35.46665, 44.178659)"><g><path d="M 3.703125 0 L 10.542969 0 L 10.542969 -26.238281 L 3.703125 -26.238281 Z M 7.167969 -30.453125 C 9.511719 -30.453125 11.246094 -32.046875 11.246094 -34.203125 C 11.246094 -36.453125 9.511719 -37.949219 7.167969 -37.949219 C 4.777344 -37.949219 3.046875 -36.453125 3.046875 -34.203125 C 3.046875 -32.046875 4.777344 -30.453125 7.167969 -30.453125 Z M 7.167969 -30.453125 "/></g></g></g><g fill="#000000" fill-opacity="1"><g transform="translate(49.709531, 44.178659)"><g><path d="M 13.304688 0.65625 C 15.601562 0.65625 17.429688 0.140625 18.835938 -0.328125 L 17.710938 -5.339844 C 17.007812 -5.058594 15.976562 -4.777344 15.132812 -4.777344 C 12.789062 -4.777344 11.574219 -6.183594 11.574219 -9.183594 L 11.574219 -20.800781 L 18.039062 -20.800781 L 18.039062 -26.238281 L 11.574219 -26.238281 L 11.574219 -33.265625 L 5.808594 -33.265625 L 5.011719 -26.238281 L 0.984375 -25.910156 L 0.984375 -20.800781 L 4.683594 -20.800781 L 4.683594 -9.183594 C 4.683594 -3.28125 7.074219 0.65625 13.304688 0.65625 Z M 13.304688 0.65625 "/></g></g></g><g fill="#000000" fill-opacity="1"><g transform="translate(69.387187, 44.178659)"><g><path d="M 14.664062 0.65625 C 21.222656 0.65625 27.269531 -4.402344 27.269531 -13.070312 C 27.269531 -21.832031 21.222656 -26.894531 14.664062 -26.894531 C 8.105469 -26.894531 2.0625 -21.832031 2.0625 -13.070312 C 2.0625 -4.402344 8.105469 0.65625 14.664062 0.65625 Z M 14.664062 -4.964844 C 11.105469 -4.964844 9.089844 -8.152344 9.089844 -13.070312 C 9.089844 -18.039062 11.105469 -21.269531 14.664062 -21.269531 C 18.226562 -21.269531 20.242188 -18.039062 20.242188 -13.070312 C 20.242188 -8.152344 18.226562 -4.964844 14.664062 -4.964844 Z M 14.664062 -4.964844 "/></g></g></g><g fill="#000000" fill-opacity="1"><g transform="translate(98.716275, 44.178659)"><g><path d="M 13.304688 0.65625 C 15.601562 0.65625 17.429688 0.140625 18.835938 -0.328125 L 17.710938 -5.339844 C 17.007812 -5.058594 15.976562 -4.777344 15.132812 -4.777344 C 12.789062 -4.777344 11.574219 -6.183594 11.574219 -9.183594 L 11.574219 -20.800781 L 18.039062 -20.800781 L 18.039062 -26.238281 L 11.574219 -26.238281 L 11.574219 -33.265625 L 5.808594 -33.265625 L 5.011719 -26.238281 L 0.984375 -25.910156 L 0.984375 -20.800781 L 4.683594 -20.800781 L 4.683594 -9.183594 C 4.683594 -3.28125 7.074219 0.65625 13.304688 0.65625 Z M 13.304688 0.65625 "/></g></g></g><g fill="#000000" fill-opacity="1"><g transform="translate(118.393932, 44.178659)"><g><path d="M 14.664062 0.65625 C 21.222656 0.65625 27.269531 -4.402344 27.269531 -13.070312 C 27.269531 -21.832031 21.222656 -26.894531 14.664062 -26.894531 C 8.105469 -26.894531 2.0625 -21.832031 2.0625 -13.070312 C 2.0625 -4.402344 8.105469 0.65625 14.664062 0.65625 Z M 14.664062 -4.964844 C 11.105469 -4.964844 9.089844 -8.152344 9.089844 -13.070312 C 9.089844 -18.039062 11.105469 -21.269531 14.664062 -21.269531 C 18.226562 -21.269531 20.242188 -18.039062 20.242188 -13.070312 C 20.242188 -8.152344 18.226562 -4.964844 14.664062 -4.964844 Z M 14.664062 -4.964844 "/></g></g></g><g fill="#000000" fill-opacity="1"><g transform="translate(147.72302, 44.178659)"><g><path d="M 3.703125 0 L 10.402344 0 L 10.402344 -6.558594 L 14.195312 -10.871094 L 20.566406 0 L 28.019531 0 L 18.085938 -15.507812 L 27.175781 -26.238281 L 19.679688 -26.238281 L 10.589844 -14.898438 L 10.402344 -14.898438 L 10.402344 -37.386719 L 3.703125 -37.386719 Z M 3.703125 0 "/></g></g></g><g fill="#000000" fill-opacity="1"><g transform="translate(176.068225, 44.178659)"><g><path d="M 3.703125 0 L 10.542969 0 L 10.542969 -26.238281 L 3.703125 -26.238281 Z M 7.167969 -30.453125 C 9.511719 -30.453125 11.246094 -32.046875 11.246094 -34.203125 C 11.246094 -36.453125 9.511719 -37.949219 7.167969 -37.949219 C 4.777344 -37.949219 3.046875 -36.453125 3.046875 -34.203125 C 3.046875 -32.046875 4.777344 -30.453125 7.167969 -30.453125 Z M 7.167969 -30.453125 "/></g></g></g><g fill="#000000" fill-opacity="1"><g transform="translate(190.311106, 44.178659)"><g/></g></g><g fill="#000000" fill-opacity="1"><g transform="translate(200.946409, 44.178659)"><g><path d="M 18.414062 0.65625 C 22.910156 0.65625 26.613281 -1.125 29.46875 -4.449219 L 25.816406 -8.761719 C 23.941406 -6.746094 21.597656 -5.339844 18.648438 -5.339844 C 13.164062 -5.339844 9.605469 -9.886719 9.605469 -17.429688 C 9.605469 -24.878906 13.539062 -29.375 18.789062 -29.375 C 21.410156 -29.375 23.425781 -28.160156 25.160156 -26.472656 L 28.8125 -30.875 C 26.566406 -33.21875 23.050781 -35.328125 18.648438 -35.328125 C 9.886719 -35.328125 2.53125 -28.625 2.53125 -17.195312 C 2.53125 -5.621094 9.652344 0.65625 18.414062 0.65625 Z M 18.414062 0.65625 "/></g></g></g><g fill="#000000" fill-opacity="1"><g transform="translate(231.727878, 44.178659)"><g><path d="M 10.167969 0.65625 C 13.164062 0.65625 15.789062 -0.84375 18.085938 -2.8125 L 18.226562 -2.8125 L 18.742188 0 L 24.363281 0 L 24.363281 -15.320312 C 24.363281 -22.910156 20.941406 -26.894531 14.289062 -26.894531 C 10.167969 -26.894531 6.417969 -25.347656 3.328125 -23.425781 L 5.808594 -18.882812 C 8.246094 -20.289062 10.589844 -21.363281 13.023438 -21.363281 C 16.257812 -21.363281 17.382812 -19.398438 17.476562 -16.820312 C 6.933594 -15.695312 2.390625 -12.742188 2.390625 -7.121094 C 2.390625 -2.671875 5.480469 0.65625 10.167969 0.65625 Z M 12.414062 -4.730469 C 10.402344 -4.730469 8.949219 -5.621094 8.949219 -7.683594 C 8.949219 -10.027344 11.105469 -11.761719 17.476562 -12.601562 L 17.476562 -7.308594 C 15.835938 -5.667969 14.382812 -4.730469 12.414062 -4.730469 Z M 12.414062 -4.730469 "/></g></g></g><g fill="#000000" fill-opacity="1"><g transform="translate(259.417154, 44.178659)"><g><path d="M 18.976562 -37.105469 C 17.804688 -37.574219 16.023438 -38.042969 14.007812 -38.042969 C 7.402344 -38.042969 4.871094 -33.828125 4.871094 -28.347656 L 4.871094 -26.191406 L 1.359375 -25.910156 L 1.359375 -20.800781 L 4.871094 -20.800781 L 4.871094 0 L 11.761719 0 L 11.761719 -20.800781 L 16.679688 -20.800781 L 16.679688 -26.238281 L 11.761719 -26.238281 L 11.761719 -28.484375 C 11.761719 -31.390625 12.882812 -32.609375 14.945312 -32.609375 C 15.789062 -32.609375 16.820312 -32.375 17.710938 -32.046875 Z M 18.976562 -37.105469 "/></g></g></g><g fill="#000000" fill-opacity="1"><g transform="translate(276.845933, 44.178659)"><g><path d="M 15.085938 0.65625 C 18.367188 0.65625 21.691406 -0.46875 24.269531 -2.25 L 21.925781 -6.464844 C 20.054688 -5.292969 18.179688 -4.636719 16.023438 -4.636719 C 12.136719 -4.636719 9.324219 -6.886719 8.761719 -11.199219 L 24.925781 -11.199219 C 25.113281 -11.808594 25.253906 -13.070312 25.253906 -14.335938 C 25.253906 -21.597656 21.503906 -26.894531 14.289062 -26.894531 C 8.011719 -26.894531 2.0625 -21.597656 2.0625 -13.070312 C 2.0625 -4.449219 7.777344 0.65625 15.085938 0.65625 Z M 8.667969 -15.742188 C 9.183594 -19.585938 11.621094 -21.550781 14.382812 -21.550781 C 17.757812 -21.550781 19.351562 -19.304688 19.351562 -15.742188 Z M 8.667969 -15.742188 "/></g></g></g></svg>