<svg xmlns="http://www.w3.org/2000/svg" xmlns:xlink="http://www.w3.org/1999/xlink" width="500" zoomAndPan="magnify" viewBox="0 0 375 374.999991" height="500" preserveAspectRatio="xMidYMid meet" version="1.0"><path fill="#966933" d="M 16.449219 161.875 C 13.097656 159 7.984375 159.480469 5.269531 162.675781 C 4.3125 163.792969 3.671875 165.230469 3.355469 166.667969 C 0 187.429688 3.992188 218.734375 39.609375 256.105469 C 77.300781 295.714844 127.449219 292.679688 151.882812 283.894531 C 158.113281 281.660156 164.820312 276.230469 160.191406 271.4375 C 148.53125 259.460938 122.976562 236.78125 105.089844 226.238281 C 78.417969 210.429688 62.925781 197.8125 45.675781 185.035156 C 35.773438 177.847656 24.4375 168.582031 16.449219 161.875 Z M 159.710938 258.179688 C 163.0625 261.214844 168.335938 261.054688 171.527344 257.703125 C 172.488281 256.585938 173.125 255.304688 173.445312 254.027344 C 178.078125 233.425781 173.605469 202.28125 138.949219 162.992188 C 107.164062 127.058594 67.71875 124.664062 38.96875 130.734375 C 26.671875 133.289062 9.742188 140.792969 18.367188 149.898438 C 28.746094 160.917969 56.058594 183.757812 72.03125 193.976562 C 98.542969 211.226562 113.875 219.691406 130.960938 233.425781 C 140.703125 241.09375 151.882812 250.996094 159.710938 258.179688 Z M 297.0625 44.167969 C 301.53125 43.050781 304.089844 38.578125 302.96875 34.109375 C 302.652344 32.828125 302.011719 31.550781 301.054688 30.433594 C 286.679688 15.421875 259.53125 0.0898438 208.742188 6.796875 C 154.757812 14.144531 127.449219 56.625 119.78125 81.703125 C 117.867188 88.089844 118.1875 96.875 124.734375 95.914062 C 141.183594 93.519531 174.242188 86.171875 193.410156 77.867188 C 221.835938 65.570312 241.164062 60.460938 261.445312 53.910156 C 272.945312 50.398438 287.160156 46.726562 297.0625 44.167969 Z M 135.59375 103.582031 C 130.960938 104.539062 128.085938 109.171875 129.046875 113.804688 C 129.367188 115.082031 129.84375 116.359375 130.804688 117.316406 C 144.21875 133.289062 171.6875 148.300781 223.273438 143.351562 C 270.710938 138.878906 296.101562 108.214844 308.402344 81.0625 C 313.671875 69.5625 317.824219 51.195312 305.6875 52.792969 C 290.671875 54.710938 256.496094 63.335938 238.925781 70.203125 C 209.539062 81.542969 193.570312 89.046875 172.648438 94.796875 C 160.507812 98.3125 145.816406 101.503906 135.59375 103.582031 Z M 334.59375 183.917969 C 337.308594 180.242188 336.351562 175.132812 332.675781 172.417969 C 331.558594 171.617188 330.28125 171.140625 328.84375 170.980469 C 308.242188 168.902344 277.738281 175.132812 243.398438 213.78125 C 206.984375 254.828125 213.214844 305.136719 223.433594 329.414062 C 225.988281 335.640625 231.898438 342.03125 236.210938 337.078125 C 247.230469 324.460938 267.675781 296.992188 276.9375 278.144531 C 290.671875 250.035156 302.171875 233.425781 313.511719 215.21875 C 320.21875 204.679688 328.523438 192.378906 334.59375 183.917969 Z M 249.628906 335.640625 C 246.753906 339.3125 247.390625 344.746094 251.066406 347.621094 C 252.183594 348.417969 253.300781 349.054688 254.738281 349.214844 C 275.179688 352.410156 305.527344 345.863281 341.78125 308.171875 C 375 273.511719 374.679688 233.425781 366.855469 204.679688 C 363.5 192.378906 355.035156 175.769531 346.730469 185.035156 C 336.507812 196.375 316.066406 225.441406 306.964844 242.371094 C 291.789062 270.480469 284.445312 286.609375 272.144531 304.816406 C 265.121094 315.199219 256.015625 327.175781 249.628906 335.640625 Z M 249.628906 335.640625 " fill-opacity="1" fill-rule="nonzero"/></svg>